<mxfile host="app.diagrams.net" modified="2023-01-12T02:27:07.369Z" agent="5.0 (Windows NT 10.0; Win64; x64) AppleWebKit/537.36 (KHTML, like Gecko) Chrome/108.0.0.0 Safari/537.36" etag="rjd3k_bUP25HSSZ257TM" version="20.8.4" type="github">
  <diagram id="2XzPcEqaLji4VvVChm9x" name="PÃ¡gina-1">
    <mxGraphModel dx="683" dy="375" grid="1" gridSize="10" guides="1" tooltips="1" connect="1" arrows="1" fold="1" page="1" pageScale="1" pageWidth="2027" pageHeight="1169" math="0" shadow="0">
      <root>
        <mxCell id="0" />
        <mxCell id="1" parent="0" />
        <mxCell id="jQi9V-DMVld7HYrMmneA-37" value="Circuit&lt;br&gt;Arduino + NodeMCU" style="rounded=1;whiteSpace=wrap;html=1;verticalAlign=top;fillColor=none;" parent="1" vertex="1">
          <mxGeometry x="460" y="510" width="770" height="220" as="geometry" />
        </mxCell>
        <mxCell id="jQi9V-DMVld7HYrMmneA-32" value="" style="pointerEvents=1;verticalLabelPosition=bottom;shadow=0;dashed=0;align=center;html=1;verticalAlign=top;shape=mxgraph.electrical.capacitors.capacitor_3;rotation=-180;" parent="1" vertex="1">
          <mxGeometry x="381" y="618" width="30" height="18" as="geometry" />
        </mxCell>
        <mxCell id="jQi9V-DMVld7HYrMmneA-34" style="edgeStyle=orthogonalEdgeStyle;rounded=0;orthogonalLoop=1;jettySize=auto;html=1;exitX=1;exitY=0.5;exitDx=0;exitDy=0;exitPerimeter=0;endArrow=none;endFill=0;entryX=-0.001;entryY=0.136;entryDx=0;entryDy=0;entryPerimeter=0;" parent="1" source="jQi9V-DMVld7HYrMmneA-36" target="jQi9V-DMVld7HYrMmneA-37" edge="1">
          <mxGeometry relative="1" as="geometry">
            <Array as="points">
              <mxPoint x="305" y="540" />
            </Array>
            <mxPoint x="400" y="520" as="targetPoint" />
          </mxGeometry>
        </mxCell>
        <mxCell id="jQi9V-DMVld7HYrMmneA-35" style="edgeStyle=orthogonalEdgeStyle;rounded=0;orthogonalLoop=1;jettySize=auto;html=1;exitX=0;exitY=0.5;exitDx=0;exitDy=0;exitPerimeter=0;endArrow=none;endFill=0;" parent="1" source="jQi9V-DMVld7HYrMmneA-36" edge="1">
          <mxGeometry relative="1" as="geometry">
            <Array as="points">
              <mxPoint x="305" y="700" />
              <mxPoint x="460" y="700" />
            </Array>
            <mxPoint x="460" y="700" as="targetPoint" />
          </mxGeometry>
        </mxCell>
        <mxCell id="IrG8gEIA_5-yGVxwC94o-4" style="edgeStyle=orthogonalEdgeStyle;rounded=0;orthogonalLoop=1;jettySize=auto;html=1;entryX=1;entryY=0.5;entryDx=0;entryDy=0;entryPerimeter=0;endArrow=none;endFill=0;exitX=0;exitY=0.5;exitDx=0;exitDy=0;exitPerimeter=0;startArrow=oval;startFill=1;" edge="1" parent="1" source="jQi9V-DMVld7HYrMmneA-36" target="IrG8gEIA_5-yGVxwC94o-2">
          <mxGeometry relative="1" as="geometry">
            <Array as="points">
              <mxPoint x="381" y="663" />
            </Array>
          </mxGeometry>
        </mxCell>
        <mxCell id="jQi9V-DMVld7HYrMmneA-36" value="" style="verticalLabelPosition=bottom;shadow=0;dashed=0;align=center;fillColor=strokeColor;html=1;verticalAlign=top;strokeWidth=1;shape=mxgraph.electrical.miscellaneous.monocell_battery;rotation=-90;" parent="1" vertex="1">
          <mxGeometry x="255" y="583" width="100" height="60" as="geometry" />
        </mxCell>
        <mxCell id="jQi9V-DMVld7HYrMmneA-46" style="edgeStyle=orthogonalEdgeStyle;rounded=0;orthogonalLoop=1;jettySize=auto;html=1;exitX=0.5;exitY=0;exitDx=0;exitDy=0;endArrow=none;endFill=0;" parent="1" source="jQi9V-DMVld7HYrMmneA-52" target="jQi9V-DMVld7HYrMmneA-45" edge="1">
          <mxGeometry relative="1" as="geometry">
            <Array as="points">
              <mxPoint x="565" y="583" />
              <mxPoint x="565" y="480" />
              <mxPoint x="435" y="480" />
            </Array>
          </mxGeometry>
        </mxCell>
        <mxCell id="jQi9V-DMVld7HYrMmneA-42" style="edgeStyle=orthogonalEdgeStyle;rounded=0;orthogonalLoop=1;jettySize=auto;html=1;entryX=0.5;entryY=1;entryDx=0;entryDy=0;startArrow=none;exitX=1;exitY=0.84;exitDx=0;exitDy=0;" parent="1" source="jQi9V-DMVld7HYrMmneA-50" target="jQi9V-DMVld7HYrMmneA-39" edge="1">
          <mxGeometry relative="1" as="geometry" />
        </mxCell>
        <mxCell id="jQi9V-DMVld7HYrMmneA-43" style="edgeStyle=orthogonalEdgeStyle;rounded=0;orthogonalLoop=1;jettySize=auto;html=1;entryX=0;entryY=0.75;entryDx=0;entryDy=0;" parent="1" source="jQi9V-DMVld7HYrMmneA-38" target="jQi9V-DMVld7HYrMmneA-45" edge="1">
          <mxGeometry relative="1" as="geometry">
            <mxPoint x="280" y="453" as="targetPoint" />
            <Array as="points">
              <mxPoint x="190" y="480" />
              <mxPoint x="320" y="480" />
              <mxPoint x="320" y="425" />
            </Array>
          </mxGeometry>
        </mxCell>
        <mxCell id="jQi9V-DMVld7HYrMmneA-38" value="" style="pointerEvents=1;verticalLabelPosition=bottom;shadow=0;dashed=0;align=center;html=1;verticalAlign=top;shape=mxgraph.electrical.signal_sources.source;aspect=fixed;points=[[0.5,0,0],[1,0.5,0],[0.5,1,0],[0,0.5,0]];elSignalType=ac;" parent="1" vertex="1">
          <mxGeometry x="160" y="580" width="60" height="60" as="geometry" />
        </mxCell>
        <mxCell id="jQi9V-DMVld7HYrMmneA-39" value="Pump 01" style="rounded=1;whiteSpace=wrap;html=1;" parent="1" vertex="1">
          <mxGeometry x="80" y="320" width="90" height="60" as="geometry" />
        </mxCell>
        <mxCell id="jQi9V-DMVld7HYrMmneA-49" style="edgeStyle=orthogonalEdgeStyle;rounded=0;orthogonalLoop=1;jettySize=auto;html=1;entryX=0;entryY=0.5;entryDx=0;entryDy=0;exitX=0.5;exitY=1;exitDx=0;exitDy=0;" parent="1" source="jQi9V-DMVld7HYrMmneA-41" target="jQi9V-DMVld7HYrMmneA-45" edge="1">
          <mxGeometry relative="1" as="geometry" />
        </mxCell>
        <mxCell id="jQi9V-DMVld7HYrMmneA-41" value="Pump 02" style="rounded=1;whiteSpace=wrap;html=1;" parent="1" vertex="1">
          <mxGeometry x="200" y="320" width="90" height="60" as="geometry" />
        </mxCell>
        <mxCell id="jQi9V-DMVld7HYrMmneA-45" value="Releay" style="rounded=1;whiteSpace=wrap;html=1;" parent="1" vertex="1">
          <mxGeometry x="390" y="380" width="90" height="60" as="geometry" />
        </mxCell>
        <mxCell id="jQi9V-DMVld7HYrMmneA-51" value="" style="edgeStyle=orthogonalEdgeStyle;rounded=0;orthogonalLoop=1;jettySize=auto;html=1;entryX=0;entryY=0.84;entryDx=0;entryDy=0;endArrow=none;" parent="1" source="jQi9V-DMVld7HYrMmneA-38" target="jQi9V-DMVld7HYrMmneA-50" edge="1">
          <mxGeometry relative="1" as="geometry">
            <mxPoint x="190" y="580" as="sourcePoint" />
            <mxPoint x="125" y="380" as="targetPoint" />
          </mxGeometry>
        </mxCell>
        <mxCell id="jQi9V-DMVld7HYrMmneA-50" value="" style="shape=mxgraph.electrical.electro-mechanical.switchDisconnector;aspect=fixed;elSwitchState=off;rotation=-90;" parent="1" vertex="1">
          <mxGeometry x="80" y="480" width="75" height="20" as="geometry" />
        </mxCell>
        <mxCell id="jQi9V-DMVld7HYrMmneA-52" value="Arduino" style="rounded=1;whiteSpace=wrap;html=1;" parent="1" vertex="1">
          <mxGeometry x="496" y="583" width="140" height="63" as="geometry" />
        </mxCell>
        <mxCell id="jQi9V-DMVld7HYrMmneA-55" style="edgeStyle=orthogonalEdgeStyle;rounded=0;orthogonalLoop=1;jettySize=auto;html=1;entryX=1;entryY=0.5;entryDx=0;entryDy=0;endArrow=none;endFill=0;exitX=0.5;exitY=0;exitDx=0;exitDy=0;" parent="1" source="jQi9V-DMVld7HYrMmneA-53" target="jQi9V-DMVld7HYrMmneA-45" edge="1">
          <mxGeometry relative="1" as="geometry">
            <Array as="points">
              <mxPoint x="734" y="410" />
            </Array>
          </mxGeometry>
        </mxCell>
        <mxCell id="jQi9V-DMVld7HYrMmneA-53" value="NodeMCU" style="rounded=1;whiteSpace=wrap;html=1;" parent="1" vertex="1">
          <mxGeometry x="664" y="581.5" width="140" height="63" as="geometry" />
        </mxCell>
        <mxCell id="jQi9V-DMVld7HYrMmneA-56" value="Sensors" style="rounded=1;whiteSpace=wrap;html=1;verticalAlign=top;" parent="1" vertex="1">
          <mxGeometry x="860" y="556" width="350" height="150" as="geometry" />
        </mxCell>
        <mxCell id="jQi9V-DMVld7HYrMmneA-58" value="Water Temp" style="rounded=1;whiteSpace=wrap;html=1;" parent="1" vertex="1">
          <mxGeometry x="880" y="583.5" width="90" height="105" as="geometry" />
        </mxCell>
        <mxCell id="jQi9V-DMVld7HYrMmneA-60" value="TDS" style="rounded=1;whiteSpace=wrap;html=1;" parent="1" vertex="1">
          <mxGeometry x="990" y="583" width="90" height="105" as="geometry" />
        </mxCell>
        <mxCell id="jQi9V-DMVld7HYrMmneA-61" value="Water Level" style="rounded=1;whiteSpace=wrap;html=1;" parent="1" vertex="1">
          <mxGeometry x="1100" y="583.5" width="90" height="105" as="geometry" />
        </mxCell>
        <mxCell id="jQi9V-DMVld7HYrMmneA-64" value="" style="shape=flexArrow;endArrow=classic;html=1;rounded=0;" parent="1" edge="1">
          <mxGeometry width="50" height="50" relative="1" as="geometry">
            <mxPoint x="228" y="612.5" as="sourcePoint" />
            <mxPoint x="268" y="613" as="targetPoint" />
          </mxGeometry>
        </mxCell>
        <mxCell id="IrG8gEIA_5-yGVxwC94o-1" value="" style="pointerEvents=1;verticalLabelPosition=bottom;shadow=0;dashed=0;align=center;html=1;verticalAlign=top;shape=mxgraph.electrical.capacitors.capacitor_3;rotation=-180;" vertex="1" parent="1">
          <mxGeometry x="381" y="599" width="30" height="18" as="geometry" />
        </mxCell>
        <mxCell id="IrG8gEIA_5-yGVxwC94o-2" value="" style="pointerEvents=1;verticalLabelPosition=bottom;shadow=0;dashed=0;align=center;html=1;verticalAlign=top;shape=mxgraph.electrical.capacitors.capacitor_3;rotation=-180;" vertex="1" parent="1">
          <mxGeometry x="381" y="579.5" width="30" height="18" as="geometry" />
        </mxCell>
        <mxCell id="IrG8gEIA_5-yGVxwC94o-3" value="" style="pointerEvents=1;verticalLabelPosition=bottom;shadow=0;dashed=0;align=center;html=1;verticalAlign=top;shape=mxgraph.electrical.capacitors.capacitor_3;rotation=-180;" vertex="1" parent="1">
          <mxGeometry x="381" y="637" width="30" height="18" as="geometry" />
        </mxCell>
        <mxCell id="IrG8gEIA_5-yGVxwC94o-5" style="edgeStyle=orthogonalEdgeStyle;rounded=0;orthogonalLoop=1;jettySize=auto;html=1;entryX=0;entryY=0.5;entryDx=0;entryDy=0;entryPerimeter=0;endArrow=none;endFill=0;startArrow=oval;startFill=1;" edge="1" parent="1" target="IrG8gEIA_5-yGVxwC94o-3">
          <mxGeometry relative="1" as="geometry">
            <mxPoint x="305" y="570" as="sourcePoint" />
            <mxPoint x="355" y="598.5" as="targetPoint" />
            <Array as="points">
              <mxPoint x="411" y="570" />
            </Array>
          </mxGeometry>
        </mxCell>
        <mxCell id="IrG8gEIA_5-yGVxwC94o-7" value="Capacitor Battery" style="rounded=1;whiteSpace=wrap;html=1;verticalAlign=top;fillColor=none;fontSize=8;" vertex="1" parent="1">
          <mxGeometry x="349" y="550" width="81" height="130" as="geometry" />
        </mxCell>
      </root>
    </mxGraphModel>
  </diagram>
</mxfile>
